<svg width="264" height="154" viewBox="0 0 264 154" fill="none" xmlns="http://www.w3.org/2000/svg">
<g opacity="0.2">
<path d="M12.8335 53.5151V100.485C12.8335 110.11 23.2927 116.142 31.6343 111.329L51.9752 99.5867L72.316 87.8442L75.4602 86.0476V67.9526L72.316 66.1559L51.9752 54.4134L31.6343 42.6709C23.2927 37.8584 12.8335 43.8901 12.8335 53.5151Z" fill="#8A38F5"/>
<path d="M75.46 53.5151V100.485C75.46 110.11 85.9191 116.142 94.1966 111.329L114.602 99.5867L134.942 87.8442C143.22 83.0317 143.22 70.9684 134.942 66.1559L114.602 54.4134L94.1966 42.6709C85.9191 37.8584 75.46 43.8901 75.46 53.5151Z" fill="#8A38F5"/>
</g>
<path d="M67.8335 53.5151V100.485C67.8335 110.11 78.2927 116.142 86.6343 111.329L106.975 99.5867L127.316 87.8442L130.46 86.0476V67.9526L127.316 66.1559L106.975 54.4134L86.6343 42.6709C78.2927 37.8584 67.8335 43.8901 67.8335 53.5151Z" fill="#8A38F5"/>
<path d="M130.46 53.5151V100.485C130.46 110.11 140.919 116.142 149.197 111.329L169.602 99.5867L189.942 87.8442C198.22 83.0317 198.22 70.9684 189.942 66.1559L169.602 54.4134L149.197 42.6709C140.919 37.8584 130.46 43.8901 130.46 53.5151Z" fill="#8A38F5"/>
<g opacity="0.2">
<path d="M122.833 53.5151V100.485C122.833 110.11 133.293 116.142 141.634 111.329L161.975 99.5867L182.316 87.8442L185.46 86.0476V67.9526L182.316 66.1559L161.975 54.4134L141.634 42.6709C133.293 37.8584 122.833 43.8901 122.833 53.5151Z" fill="#8A38F5"/>
<path d="M185.46 53.5151V100.485C185.46 110.11 195.919 116.142 204.197 111.329L224.602 99.5867L244.942 87.8442C253.22 83.0317 253.22 70.9684 244.942 66.1559L224.602 54.4134L204.197 42.6709C195.919 37.8584 185.46 43.8901 185.46 53.5151Z" fill="#8A38F5"/>
</g>
</svg>
