<svg width="36" height="36" viewBox="0 0 36 36" fill="none" xmlns="http://www.w3.org/2000/svg">
<path fill-rule="evenodd" clip-rule="evenodd" d="M15.3243 3.80181C16.866 2.48794 19.1336 2.48794 20.6754 3.80181L22.5826 5.42711C22.8829 5.68303 23.2563 5.83769 23.6496 5.86908L26.1474 6.06841C28.1667 6.22955 29.7701 7.83298 29.9312 9.85221L30.1306 12.3501C30.1619 12.7434 30.3166 13.1168 30.5725 13.4171L32.1978 15.3243C33.5117 16.866 33.5117 19.1336 32.1978 20.6754L30.5725 22.5826C30.3166 22.8829 30.1619 23.2563 30.1306 23.6496L29.9312 26.1474C29.7701 28.1667 28.1667 29.7701 26.1474 29.9312L23.6496 30.1306C23.2563 30.1619 22.8829 30.3166 22.5826 30.5725L20.6754 32.1978C19.1336 33.5117 16.866 33.5117 15.3243 32.1978L13.4171 30.5725C13.1168 30.3166 12.7434 30.1619 12.3501 30.1306L9.85221 29.9312C7.83298 29.7701 6.22955 28.1667 6.06841 26.1474L5.86908 23.6496C5.83769 23.2563 5.68303 22.8829 5.42711 22.5826L3.80181 20.6754C2.48794 19.1336 2.48794 16.866 3.80181 15.3243L5.42711 13.4171C5.68303 13.1168 5.83769 12.7434 5.86908 12.3501L6.06841 9.85221C6.22955 7.83298 7.83298 6.22955 9.85221 6.06841L12.3501 5.86908C12.7434 5.83769 13.1168 5.68303 13.4171 5.42711L15.3243 3.80181Z" fill="#11309F"/>
</svg>
