<svg width="36" height="36" viewBox="0 0 36 36" fill="none" xmlns="http://www.w3.org/2000/svg">
<path fill-rule="evenodd" clip-rule="evenodd" d="M8.83405 6C8.83405 4.34314 10.1772 3 11.8341 3H23.676C25.3328 3 26.676 4.34314 26.676 6V11.5693H30C31.6569 11.5693 33 12.9125 33 14.5693V28.5089C33 30.1656 31.6569 31.5089 30 31.5089H6C4.34314 31.5089 3 30.1656 3 28.5089V14.5693C3 12.9125 4.34314 11.5693 6 11.5693H8.83405V6ZM8.83405 28.5089H6V14.5693H8.83405V28.5089ZM26.676 28.5089H30V14.5693H26.676V28.5089ZM19.2239 7.79243H16.2239V10.0605H13.956V13.0605H16.2239V15.3282H19.2239V13.0605H21.4918V10.0605H19.2239V7.79243ZM20.2843 21.6152H15.1635V28.6918H20.2843V21.6152Z" fill="#DF6F00"/>
</svg>
