<svg width="55" height="55" viewBox="0 0 55 55" fill="none" xmlns="http://www.w3.org/2000/svg">
<path d="M40.8147 12.5814V14.2772L32.7022 9.57933C29.6314 7.81475 25.346 7.81475 22.298 9.57933L14.1855 14.3002V12.5814C14.1855 7.42516 17.0043 4.5835 22.1605 4.5835H32.8397C37.996 4.5835 40.8147 7.42516 40.8147 12.5814Z" fill="#DF6F00"/>
<path d="M40.8835 18.2644L40.5627 18.104L37.446 16.3165L30.9835 12.5811C29.0127 11.4352 25.9877 11.4352 24.0168 12.5811L17.5543 16.2936L14.4377 18.1269L14.0252 18.3331C10.0147 21.0373 9.73975 21.5415 9.73975 25.8727V36.2311C9.73975 40.5623 10.0147 41.0665 14.1168 43.8394L24.0168 49.5456C25.0022 50.1415 26.2397 50.3936 27.5002 50.3936C28.7377 50.3936 29.9981 50.1186 30.9835 49.5456L40.9752 43.7706C45.0085 41.0665 45.2606 40.5852 45.2606 36.2311V25.8727C45.2606 21.5415 44.9856 21.0373 40.8835 18.2644ZM33.8939 30.9373L32.496 32.6561C32.2668 32.9081 32.1064 33.3894 32.1293 33.7331L32.2668 35.9331C32.3585 37.2852 31.396 37.9727 30.1356 37.4915L28.096 36.6665C27.7752 36.5519 27.2481 36.5519 26.9272 36.6665L24.8877 37.4686C23.6272 37.9727 22.6647 37.2623 22.7564 35.9102L22.8939 33.7102C22.9168 33.3665 22.7564 32.8852 22.5272 32.6331L21.1064 30.9373C20.2356 29.9061 20.6252 28.7602 21.9314 28.4165L24.0627 27.8665C24.4064 27.7748 24.796 27.454 24.9793 27.179L26.171 25.3456C26.9043 24.1998 28.0731 24.1998 28.8293 25.3456L30.021 27.179C30.2043 27.4769 30.6168 27.7748 30.9377 27.8665L33.0689 28.4165C34.3752 28.7602 34.7647 29.9061 33.8939 30.9373Z" fill="#DF6F00"/>
</svg>
