<svg width="36" height="36" viewBox="0 0 36 36" fill="none" xmlns="http://www.w3.org/2000/svg">
<path d="M33 14.625C32.385 14.625 31.875 14.115 31.875 13.5V10.5C31.875 6.63 29.37 4.125 25.5 4.125H10.5C6.63 4.125 4.125 6.63 4.125 10.5V13.5C4.125 14.115 3.615 14.625 3 14.625C2.385 14.625 1.875 14.115 1.875 13.5V10.5C1.875 5.34 5.34 1.875 10.5 1.875H25.5C30.66 1.875 34.125 5.34 34.125 10.5V13.5C34.125 14.115 33.615 14.625 33 14.625Z" fill="#11309F"/>
<path d="M25.5 34.125H10.5C5.34 34.125 1.875 30.66 1.875 25.5V22.5C1.875 21.885 2.385 21.375 3 21.375C3.615 21.375 4.125 21.885 4.125 22.5V25.5C4.125 29.37 6.63 31.875 10.5 31.875H25.5C29.37 31.875 31.875 29.37 31.875 25.5V22.5C31.875 21.885 32.385 21.375 33 21.375C33.615 21.375 34.125 21.885 34.125 22.5V25.5C34.125 30.66 30.66 34.125 25.5 34.125Z" fill="#11309F"/>
<path d="M33 19.125H3C2.385 19.125 1.875 18.615 1.875 18C1.875 17.385 2.385 16.875 3 16.875H33C33.615 16.875 34.125 17.385 34.125 18C34.125 18.615 33.615 19.125 33 19.125Z" fill="#11309F"/>
<path d="M24.75 13.5H11.25C10.83 13.5 10.5 13.17 10.5 12.75V9.75C10.5 8.505 11.505 7.5 12.75 7.5H23.25C24.495 7.5 25.5 8.505 25.5 9.75V12.75C25.5 13.17 25.17 13.5 24.75 13.5Z" fill="#11309F"/>
<path d="M24.75 22.5H11.25C10.83 22.5 10.5 22.83 10.5 23.25V26.25C10.5 27.495 11.505 28.5 12.75 28.5H23.25C24.48 28.5 25.5 27.495 25.5 26.25V23.25C25.5 22.83 25.17 22.5 24.75 22.5Z" fill="#11309F"/>
</svg>
