<svg width="55" height="55" viewBox="0 0 55 55" fill="none" xmlns="http://www.w3.org/2000/svg">
<path d="M30.4124 12.7746C30.5905 12.0353 31.2328 11.5008 31.9923 11.4605C32.7515 11.4201 33.447 11.8834 33.7023 12.5996L38.4016 25.781C40.0761 25.7789 41.1381 25.4691 42.2628 24.626C42.5924 24.2169 42.9909 23.8658 43.4405 23.5899C43.474 23.5569 43.5079 23.5232 43.5418 23.4893V23.5296C44.216 23.1396 44.9986 22.9164 45.8335 22.9164C48.3649 22.9164 50.4168 24.9683 50.4168 27.4997C50.4168 30.0311 48.3649 32.083 45.8335 32.083C44.9986 32.083 44.216 31.8598 43.5418 31.4698V31.5101C43.5077 31.476 43.4738 31.4423 43.4401 31.4093C43.0157 31.149 42.6371 30.8215 42.3188 30.4415C41.2761 29.6866 40.2968 29.4277 38.8462 29.3862H37.2494C36.5227 29.3862 35.8746 28.929 35.6305 28.2445L32.4034 19.1926L26.8601 42.2248C26.6818 42.9662 26.0362 43.5013 25.2747 43.5393C24.5132 43.5771 23.8177 43.1089 23.5663 42.3891L17.0938 23.8511L15.3502 28.2951C15.092 28.9533 14.4571 29.7914 13.7502 29.7914H4.5835V26.3539H12.5782L15.5877 18.2782C15.8502 17.609 16.5015 17.1739 17.2203 17.1875C17.9391 17.2011 18.5734 17.6607 18.8103 18.3394L24.8854 35.7389L30.4124 12.7746Z" fill="black"/>
</svg>
