<svg width="55" height="55" viewBox="0 0 55 55" fill="none" xmlns="http://www.w3.org/2000/svg">
<path d="M28.7467 47.8729L29.7915 48.4073L30.8351 47.8736L30.8377 47.8722L30.8415 47.8704L30.8523 47.8647L30.8876 47.8463C30.9167 47.8312 30.9575 47.8097 31.0093 47.7822C31.1129 47.7269 31.26 47.6472 31.4461 47.5436C31.8183 47.3362 32.3463 47.0326 32.9902 46.6368C34.2761 45.8466 36.0347 44.6825 37.9398 43.1784C41.6843 40.2222 46.1856 35.8041 48.6285 30.1657C49.3575 28.8177 50.4165 25.7531 50.4165 21.8103C50.4165 18.0768 49.2528 14.4299 47.2084 11.6657C45.1569 8.89192 42.0961 6.875 38.3853 6.875C36.9601 6.875 35.6341 7.37818 34.5405 7.97305C33.4286 8.57778 32.3999 9.36366 31.5272 10.1271C30.8826 10.6911 30.295 11.2681 29.7915 11.7948C29.288 11.2681 28.7004 10.6911 28.0558 10.1271C27.1831 9.36366 26.1544 8.57778 25.0425 7.97305C23.9489 7.37818 22.6228 6.875 21.1978 6.875C17.4869 6.875 14.4261 8.89192 12.3746 11.6657C10.3302 14.4299 9.1665 18.0768 9.1665 21.8103C9.1665 23.6979 9.56745 25.7185 10.0126 27.3476H18.1815L23.3283 18.9062L26.8639 27.6038L28.565 25.0926H36.6665V29.6028H31.018L25.8441 37.2396L22.5046 29.0237L20.7765 31.8578H11.766C14.3107 36.6928 18.2819 40.5247 21.6433 43.1784C23.5483 44.6825 25.3069 45.8466 26.5928 46.6368C27.2368 47.0326 27.7648 47.3362 28.1369 47.5436C28.323 47.6472 28.4701 47.7269 28.5737 47.7822C28.6255 47.8097 28.6663 47.8312 28.6954 47.8463L28.7307 47.8647L28.7415 47.8704L28.7467 47.8729Z" fill="#11309F"/>
<path d="M4.5835 27.3477V31.8579H11.7513C11.5736 31.4337 11.4082 31.045 11.2549 30.6846C10.6611 29.2889 10.2474 28.3166 9.99483 27.3477H4.5835Z" fill="#11309F"/>
</svg>
