<svg width="36" height="36" viewBox="0 0 36 36" fill="none" xmlns="http://www.w3.org/2000/svg">
<path d="M24.285 3H11.715C6.255 3 3 6.255 3 11.715V24.27C3 29.745 6.255 33 11.715 33H24.27C29.73 33 32.985 29.745 32.985 24.285V11.715C33 6.255 29.745 3 24.285 3ZM11.445 27.225C11.445 27.84 10.935 28.35 10.32 28.35C9.705 28.35 9.195 27.84 9.195 27.225V24.12C9.195 23.505 9.705 22.995 10.32 22.995C10.935 22.995 11.445 23.505 11.445 24.12V27.225ZM19.125 27.225C19.125 27.84 18.615 28.35 18 28.35C17.385 28.35 16.875 27.84 16.875 27.225V21C16.875 20.385 17.385 19.875 18 19.875C18.615 19.875 19.125 20.385 19.125 21V27.225ZM26.805 27.225C26.805 27.84 26.295 28.35 25.68 28.35C25.065 28.35 24.555 27.84 24.555 27.225V17.895C24.555 17.28 25.065 16.77 25.68 16.77C26.295 16.77 26.805 17.28 26.805 17.895V27.225ZM26.805 13.155C26.805 13.77 26.295 14.28 25.68 14.28C25.065 14.28 24.555 13.77 24.555 13.155V11.7C20.73 15.63 15.945 18.405 10.59 19.74C10.5 19.77 10.41 19.77 10.32 19.77C9.81 19.77 9.36 19.425 9.225 18.915C9.075 18.315 9.435 17.7 10.05 17.55C15.105 16.29 19.605 13.635 23.175 9.885H21.3C20.685 9.885 20.175 9.375 20.175 8.76C20.175 8.145 20.685 7.635 21.3 7.635H25.695C25.755 7.635 25.8 7.665 25.86 7.665C25.935 7.68 26.01 7.68 26.085 7.71C26.16 7.74 26.22 7.785 26.295 7.83C26.34 7.86 26.385 7.875 26.43 7.905C26.445 7.92 26.445 7.935 26.46 7.935C26.52 7.995 26.565 8.055 26.61 8.115C26.655 8.175 26.7 8.22 26.715 8.28C26.745 8.34 26.745 8.4 26.76 8.475C26.775 8.55 26.805 8.625 26.805 8.715C26.805 8.73 26.82 8.745 26.82 8.76V13.155H26.805Z" fill="#8A38F5"/>
</svg>
