<svg width="55" height="55" viewBox="0 0 55 55" fill="none" xmlns="http://www.w3.org/2000/svg">
<path d="M17.7466 8.05198C18.0376 7.92299 18.3335 8.16052 18.3335 8.47885V40.3228C18.3335 40.546 18.1842 40.7391 17.9755 40.8185C17.8003 40.8851 17.6387 40.9601 17.4855 41.0437L12.1001 44.1145C8.3418 46.2687 5.24805 44.4812 5.24805 40.127V17.8291C5.24805 16.3854 6.2793 14.5979 7.56263 13.8645L17.4855 8.18118C17.5697 8.13528 17.6564 8.09192 17.7466 8.05198Z" fill="#DF6F00"/>
<path d="M34.0969 14.1624C34.2672 14.2468 34.375 14.4204 34.375 14.6105V46.182C34.375 46.5505 33.99 46.7924 33.658 46.6324L22.6267 41.3177C22.4537 41.2344 22.3438 41.0593 22.3438 40.8673V9.14737C22.3438 8.77652 22.7333 8.53472 23.0656 8.69931L34.0969 14.1624Z" fill="#DF6F00"/>
<path d="M50.4165 14.8734V37.1713C50.4165 38.6151 49.3853 40.4026 48.1019 41.1359L39.1339 46.2756C38.8005 46.4666 38.3853 46.226 38.3853 45.8418V14.1325C38.3853 13.9529 38.4815 13.7872 38.6374 13.6982L43.5644 10.8859C47.3228 8.73172 50.4165 10.5192 50.4165 14.8734Z" fill="#DF6F00"/>
</svg>
