<svg width="36" height="36" viewBox="0 0 36 36" fill="none" xmlns="http://www.w3.org/2000/svg">
<path fill-rule="evenodd" clip-rule="evenodd" d="M9.86235 13.5C8.55351 13.5 7.39573 14.3485 7.00159 15.5966L3.68581 26.0965C3.07521 28.0302 4.51887 30 6.54655 30H21.8742C23.1831 30 24.3408 29.1515 24.735 27.9035L27.3255 19.6998L29.5643 25.9552L26.9999 27L26.2499 30L30.4769 28.8131C32.094 28.2966 32.9609 26.5425 32.3889 24.9442L28.4999 13.5H9.86235ZM16.8636 17.2951C17.6673 17.496 18.156 18.3105 17.955 19.1142L17.6711 20.2503H18.7499C19.5783 20.2503 20.2499 20.922 20.2499 21.7503C20.2499 22.5788 19.5783 23.2503 18.7499 23.2503H16.9211L16.455 25.1142C16.2542 25.9179 15.4398 26.4064 14.6361 26.2056C13.8324 26.0046 13.3437 25.1903 13.5447 24.3865L13.8265 23.2593L12.7568 23.2642C11.9284 23.2681 11.2537 22.5998 11.2498 21.7713C11.246 20.9429 11.9145 20.2681 12.7429 20.2642L14.5773 20.2558L15.0447 18.3865C15.2456 17.5828 16.0599 17.0941 16.8636 17.2951Z" fill="#8A38F5"/>
<path d="M19.5 6H28.5V12H19.5V6Z" fill="#8A38F5"/>
<path d="M26.25 6H28.5V13.5H26.25V6Z" fill="#8A38F5"/>
</svg>
