<svg width="55" height="55" viewBox="0 0 55 55" fill="none" xmlns="http://www.w3.org/2000/svg">
<path d="M48.0561 2.2915H41.3186C38.4082 2.2915 36.6665 4.03317 36.6665 6.94359V13.6811C36.6665 16.5915 38.4082 18.3332 41.3186 18.3332H48.0561C50.9665 18.3332 52.7082 16.5915 52.7082 13.6811V6.94359C52.7082 4.03317 50.9665 2.2915 48.0561 2.2915ZM49.5228 10.7248C48.6748 13.429 45.7186 14.8957 44.6873 14.8957C43.6561 14.8957 40.7228 13.4748 39.8519 10.7248C39.7144 10.3123 39.6457 9.854 39.6457 9.41859C39.6457 7.929 40.4019 6.39359 41.9832 5.88942C42.9228 5.5915 43.9311 5.75192 44.6415 6.34775C45.3748 5.77484 46.3832 5.5915 47.3457 5.88942C49.454 6.554 50.1186 8.91442 49.5228 10.7248Z" fill="#DF6F00"/>
<path d="M41.3189 21.771C36.8502 21.771 33.2293 18.1502 33.2293 13.6814V6.87516C33.2293 5.61475 32.1981 4.5835 30.9377 4.5835H16.0418C9.71683 4.5835 4.5835 9.69391 4.5835 15.996V31.9689C4.5835 38.2939 9.71683 43.4272 16.0418 43.4272H19.4793C20.121 43.4272 20.946 43.8397 21.3127 44.3439L24.7502 48.9043C26.2627 50.921 28.7377 50.921 30.2502 48.9043L33.6877 44.3439C34.1231 43.771 34.8106 43.4272 35.521 43.4272H38.9814C45.3064 43.4272 50.4168 38.3168 50.4168 31.9918V24.0627C50.4168 22.8022 49.3856 21.771 48.1252 21.771H41.3189ZM18.3335 27.5002C17.0502 27.5002 16.0418 26.4689 16.0418 25.2085C16.0418 23.9481 17.0502 22.9168 18.3335 22.9168C19.5939 22.9168 20.6252 23.9481 20.6252 25.2085C20.6252 26.4689 19.6168 27.5002 18.3335 27.5002ZM27.5002 27.5002C26.2168 27.5002 25.2085 26.4689 25.2085 25.2085C25.2085 23.9481 26.2168 22.9168 27.5002 22.9168C28.7606 22.9168 29.7918 23.9481 29.7918 25.2085C29.7918 26.4689 28.7835 27.5002 27.5002 27.5002Z" fill="#DF6F00"/>
</svg>
