<svg width="55" height="55" viewBox="0 0 55 55" fill="none" xmlns="http://www.w3.org/2000/svg">
<path fill-rule="evenodd" clip-rule="evenodd" d="M26.7753 8.51051L13.0253 13.0938C12.0895 13.4058 11.4583 14.2815 11.4583 15.2679V27.5002C11.4583 32.1425 13.7835 36.1062 17.1516 39.439C20.5269 42.779 24.5902 45.1094 27.1032 46.3527C27.3636 46.4816 27.6364 46.4816 27.8968 46.3527C30.4098 45.1094 34.4731 42.779 37.8484 39.439C41.2165 36.1062 43.5417 32.1425 43.5417 27.5002V15.2679C43.5417 14.2815 42.9105 13.4058 41.9747 13.0938L28.2247 8.5105C27.7543 8.3537 27.2457 8.3537 26.7753 8.51051ZM11.5759 8.74571C8.76858 9.68149 6.875 12.3087 6.875 15.2679V27.5002C6.875 40.109 19.6171 47.7625 25.0707 50.4607C26.612 51.2233 28.388 51.2233 29.9293 50.4607C35.3829 47.7625 48.125 40.109 48.125 27.5002V15.2679C48.125 12.3087 46.2314 9.68149 43.4241 8.74571L29.6741 4.16237C28.2629 3.69197 26.7371 3.69197 25.3259 4.16237L11.5759 8.74571Z" fill="#DF6F00"/>
<path fill-rule="evenodd" clip-rule="evenodd" d="M35.9956 21.2962C36.8906 22.1912 36.8906 23.6422 35.9956 24.5371L28.1253 32.4074C26.5144 34.0183 23.9026 34.0183 22.2917 32.4074L19.0047 29.1205C18.1098 28.2255 18.1098 26.7745 19.0047 25.8795C19.8997 24.9846 21.3507 24.9846 22.2456 25.8795L25.2085 28.8424L32.7547 21.2962C33.6497 20.4013 35.1007 20.4013 35.9956 21.2962Z" fill="#DF6F00"/>
</svg>
