<svg width="36" height="36" viewBox="0 0 36 36" fill="none" xmlns="http://www.w3.org/2000/svg">
<path fill-rule="evenodd" clip-rule="evenodd" d="M9.40859 6.64829C7.40534 7.14911 6 8.94903 6 11.0139V30.0005H4.5C3.67157 30.0005 3 30.6721 3 31.5005C3 32.3289 3.67157 33.0005 4.5 33.0005H31.5C32.3284 33.0005 33 32.3289 33 31.5005C33 30.6721 32.3284 30.0005 31.5 30.0005H30V16.5005C30 14.0152 27.9853 12.0005 25.5 12.0005H24V8.76394C24 5.83637 21.2488 3.68825 18.4086 4.39829L9.40859 6.64829ZM27 16.5005V30.0005H24V15.0005H25.5C26.3284 15.0005 27 15.6721 27 16.5005ZM13.5 24.0005C12.6716 24.0005 12 24.6721 12 25.5005C12 26.3289 12.6716 27.0005 13.5 27.0005H16.5C17.3284 27.0005 18 26.3289 18 25.5005C18 24.6721 17.3284 24.0005 16.5 24.0005H13.5ZM12 19.5005C12 18.6721 12.6716 18.0005 13.5 18.0005H16.5C17.3284 18.0005 18 18.6721 18 19.5005C18 20.3289 17.3284 21.0005 16.5 21.0005H13.5C12.6716 21.0005 12 20.3289 12 19.5005ZM13.5 12.0005C12.6716 12.0005 12 12.6721 12 13.5005C12 14.3289 12.6716 15.0005 13.5 15.0005H16.5C17.3284 15.0005 18 14.3289 18 13.5005C18 12.6721 17.3284 12.0005 16.5 12.0005H13.5Z" fill="#0D5C02" fill-opacity="0.6"/>
</svg>
